# xmcd CD database file
#
# Track frame offsets:
#	150
#	18215
#	35880
#	55657
#	71682
#	92807
#	118867
#	140342
#	161650
#	180742
#
# Disc length: 2548 seconds
#
# Revision: 0
# Processed by: cddbd v1.4PL0 Copyright (c) Steve Scherf et al.
# Submitted via: CDex 1.40Release
#
DISCID=8909f20a
DTITLE=Mike Bloomfield - RX For The Blues
DYEAR=1900
DGENRE=Blues
TTITLE0=Hullly Gully
TTITLE1=Wings Of An Angel
TTITLE2=Walkin' The Floor
TTITLE3=Don't Lie To Me
TTITLE4=Junko Partner
TTITLE5=Knockin' Myself Out
TTITLE6=Women Lovin' Each Other
TTITLE7=Cherry Red
TTITLE8=You Must Have Jesus
TTITLE9=RX For The Blues
EXTD=ID3G: 0
EXTT0=
EXTT1=
EXTT2=
EXTT3=
EXTT4=
EXTT5=
EXTT6=
EXTT7=
EXTT8=
EXTT9=
PLAYORDER=
